<svg width="3" height="16" viewBox="0 0 3 16" fill="none" xmlns="http://www.w3.org/2000/svg">
<path d="M1.63636 2.27273C1.28491 2.27273 1 1.98782 1 1.63636C1 1.28491 1.28491 1 1.63636 1C1.98782 1 2.27273 1.28491 2.27273 1.63636C2.27273 1.98782 1.98782 2.27273 1.63636 2.27273Z" stroke="black"/>
<path d="M1.63636 8.63636C1.28491 8.63636 1 8.35145 1 8C1 7.64855 1.28491 7.36364 1.63636 7.36364C1.98782 7.36364 2.27273 7.64855 2.27273 8C2.27273 8.35145 1.98782 8.63636 1.63636 8.63636Z" stroke="black"/>
<path d="M1.63636 15C1.28491 15 1 14.7151 1 14.3636C1 14.0122 1.28491 13.7273 1.63636 13.7273C1.98782 13.7273 2.27273 14.0122 2.27273 14.3636C2.27273 14.7151 1.98782 15 1.63636 15Z" stroke="black"/>
</svg>
